# xmcd
# Copyright (C) 1995-1998 Ti Kan
#
# Track frame offsets:
#       150
#       17207
#       26762
#       39428
#       60465
#       96443
#       118251
#       136105
#       153455
#       175831
#       193906
#       212861
#       239768
#       253908
#       270657
#       291917
#       320959
#
# Disc length: 4287 seconds
#
# Revision: 0
# Processed by: cddbd v1.5.2PL0 Copyright (c) Steve Scherf et al.
# Submitted via: CD-Import v1.0
#
DISCID=0e10bd11
DTITLE=Various Artist - The Rough Guide To The Music Of Hungarian Gypsies
DYEAR=1900
DGENRE=
TTITLE0=Rovel E Luludyi - Romano Drom
TTITLE1=Odi Phenel Cino Savo - Parno Graszt
TTITLE2=Opre Gélem Pe Vulica - Amaro Suno
TTITLE3=Hulav Tu Sej - Romano Drom
TTITLE4=Pundela - Ando Drom
TTITLE5=Calusul Dance - Kalman Balogh and The Gipsy Cimbalon Band
TTITLE6=Duj Duj - Fanfare Ciocarlina Feat Mitsou and Florentina Sandu
TTITLE7=Aven Aven Romale - Etnodrom
TTITLE8=Oppadiria - Cimbali Band
TTITLE9=More Shej Sabina - Kalyi Jag
TTITLE10=Amari Familija - Karavan Familia
TTITLE11=Botolo - Kalman Balogh and Romano Kakolo
TTITLE12=Lingara Csavargok - Khamoro
TTITLE13=T'avos Devla Barvalo - Romanyi Rota
TTITLE14=Cigansko Oro - Besh O Drom
TTITLE15=O Bijav - Bela Lakatos
TTITLE16=
EXTD=
EXTT0=
EXTT1=
EXTT2=
EXTT3=
EXTT4=
EXTT5=
EXTT6=
EXTT7=
EXTT8=
EXTT9=
EXTT10=
EXTT11=
EXTT12=
EXTT13=
EXTT14=
EXTT15=
EXTT16=
PLAYORDER=
